# xmcd
#
# Track frame offsets:
#	150
#	15187
#	41299
#	83458
#	136760
#	175505
#	208419
#
# Disc length: 3128 seconds
#
# Revision: 1
# Processed by: cddbd v1.5.2PL0 Copyright (c) Steve Scherf et al.
# Submitted via: audiograbber 1.83.01
#
DISCID=440c3607
DTITLE=mick clarke - live in luxemburg
DYEAR=2002
DGENRE=
TTITLE0=Bremley City Lights
TTITLE1=Looking For Trouble
TTITLE2=That´s Alright
TTITLE3=London Town - Cool Night Air
TTITLE4=You Gonna Miss Me
TTITLE5=You Need Love
TTITLE6=Don´t Lie To Me
EXTD=
EXTT0=
EXTT1=
EXTT2=
EXTT3=
EXTT4=
EXTT5=
EXTT6=
PLAYORDER=
